#!OML:ASF I:\Actors\actors\Patient Classification 1\Patient 1\Session 1\Subject1.ASF
:FULLY-SPECIFIED
:DEGREES
1683
root -0.346349 17.546 7.46346 39.2221 -9.02486 -10.1978
lowerback 23.7248 2.24557 5.79642
upperback 13.1614 3.78889 5.31286
thorax 1.34793 1.84128 1.62477
lowerneck 6.95441 -5.34452 -7.31538
upperneck 16.0456 -8.27172 9.07815
head 4.3323 -4.04224 3.86493
rclavicle -1.03368e-014 -3.27995e-014
rhumerus 54.1214 24.0705 -9.5081
rradius 68.0673
rwrist 4.35342
rhand 5.24561 -33.2168
rfingers 7.12502
rthumb 30.6042 -60.6929
lclavicle -1.03368e-014 -3.27995e-014
lhumerus 58.4689 -32.212 24.3595
lradius 66.3026
lwrist 14.4101
lhand -21.4799 -11.9492
lfingers 7.12502
lthumb 4.91095 17.9739
rfemur -46.0782 29.1454 2.49708
rtibia -0.0357349
rfoot -3.75728 -28.054
rtoes 7.47312
lfemur -23.9331 11.73 -3.5911
ltibia -13.886
lfoot -15.5258 12.2864
ltoes 57.589
1684
root -0.350453 17.5474 7.46659 39.1041 -9.13423 -10.1547
lowerback 23.7219 2.30402 5.73731
upperback 13.0363 3.86381 5.30582
thorax 1.20446 1.87376 1.62814
lowerneck 6.68315 -5.3082 -7.36692
upperneck 16.0821 -8.26301 9.41711
head 4.39897 -4.02308 3.97169
rclavicle 4.85035e-014 -2.38542e-015
rhumerus 54.1888 24.5771 -8.64364
rradius 68.1086
rwrist 3.67568
rhand 4.83513 -33.4821
rfingers 7.12502
rthumb 30.2127 -61.0307
lclavicle 4.85035e-014 -2.38542e-015
lhumerus 58.5867 -32.695 24.1725
lradius 66.2392
lwrist 14.8857
lhand -21.5232 -11.82
lfingers 7.12502
lthumb 4.86913 18.1041
rfemur -45.9482 29.2172 2.47122
rtibia -0.0469193
rfoot -3.77067 -27.9924
rtoes 7.32787
lfemur -23.7189 11.3727 -3.52617
ltibia -13.9379
lfoot -15.9364 12.5001
ltoes 57.6299
1685
root -0.356107 17.5496 7.46751 39.03 -9.18965 -10.1763
lowerback 23.7714 2.30744 5.70355
upperback 12.9056 3.87917 5.31502
thorax 1.03012 1.87653 1.64543
lowerneck 6.50776 -5.25532 -7.26392
upperneck 15.9532 -8.17391 9.36946
head 4.37398 -3.97549 3.93709
rclavicle 2.54444e-014 -2.18663e-015
rhumerus 54.409 25.023 -7.96217
rradius 68.1599
rwrist 3.41567
rhand 4.79924 -33.7652
rfingers 7.12502
rthumb 30.1785 -61.32
lclavicle 2.54444e-014 -2.18663e-015
lhumerus 58.4991 -33.0559 23.9006
lradius 66.4141
lwrist 15.2743
lhand -21.474 -11.552
lfingers 7.12502
lthumb 4.9167 18.3709
rfemur -45.8629 29.279 2.51326
rtibia -0.053399
rfoot -3.79315 -27.891
rtoes 7.38125
lfemur -23.5238 11.0527 -3.33696
ltibia -14.0303
lfoot -16.3381 12.7116
ltoes 57.6975
1686
root -0.363861 17.55 7.46817 39.0156 -9.23767 -10.224
lowerback 23.7819 2.32299 5.67737
upperback 12.7864 3.90705 5.33989
thorax 0.887415 1.88569 1.67479
lowerneck 6.502 -5.20594 -7.20432
upperneck 15.7253 -8.08494 9.28284
head 4.29211 -3.93686 3.90291
rclavicle 2.22639e-014 4.57205e-014
rhumerus 54.5236 25.3571 -7.55551
rradius 68.2833
rwrist 3.57939
rhand 5.08969 -33.9515
rfingers 7.12502
rthumb 30.4555 -61.4553
lclavicle 2.22639e-014 4.57205e-014
lhumerus 58.4533 -33.35 23.4813
lradius 66.7519
lwrist 15.5609
lhand -21.5685 -10.8831
lfingers 7.12502
lthumb 4.82541 19.0419
rfemur -45.8389 29.3379 2.55228
rtibia -0.066977
rfoot -3.88211 -27.8297
rtoes 7.6073
lfemur -23.3566 10.7876 -3.08019
ltibia -14.1589
lfoot -16.7445 12.9076
ltoes 57.7806
1687
root -0.370631 17.5483 7.46945 39.0223 -9.28773 -10.2225
lowerback 23.7585 2.33759 5.64921
upperback 12.6984 3.92727 5.34258
thorax 0.797375 1.89311 1.68577
lowerneck 6.3807 -5.19768 -7.09214
upperneck 15.6641 -8.04899 9.15542
head 4.28146 -3.91668 3.84172
rclavicle 5.64548e-014 8.34896e-014
rhumerus 54.5184 25.5774 -7.21748
rradius 68.6023
rwrist 3.80076
rhand 5.24309 -34.0824
rfingers 7.12502
rthumb 30.6018 -61.559
lclavicle 5.64548e-014 8.34896e-014
lhumerus 58.4123 -33.5801 23.0488
lradius 67.1998
lwrist 15.7606
lhand -21.545 -10.2759
lfingers 7.12502
lthumb 4.8481 19.6487
rfemur -45.8357 29.3624 2.54281
rtibia -0.0775813
rfoot -4.00473 -27.8079
rtoes 7.76416
lfemur -23.2198 10.5025 -2.86676
ltibia -14.2997
lfoot -17.1599 13.1009
ltoes 57.8795
1688
root -0.375594 17.5469 7.46973 39.035 -9.29262 -10.2067
lowerback 23.7385 2.32344 5.66183
upperback 12.6403 3.91637 5.33807
thorax 0.743139 1.88805 1.67445
lowerneck 6.08173 -5.19468 -6.81495
upperneck 15.8504 -8.00375 8.85437
head 4.36254 -3.88172 3.69342
rclavicle 5.00937e-014 2.42517e-014
rhumerus 54.4251 25.7111 -6.93858
rradius 69.0663
rwrist 3.94867
rhand 5.29551 -33.9589
rfingers 7.12502
rthumb 30.6518 -61.4262
lclavicle 5.00937e-014 2.42517e-014
lhumerus 58.268 -33.73 22.6938
lradius 67.7363
lwrist 15.9766
lhand -21.3537 -10.0638
lfingers 7.12502
lthumb 5.03286 19.8565
rfemur -45.8458 29.344 2.55444
rtibia -0.0713804
rfoot -4.02365 -27.7587
rtoes 7.56742
lfemur -23.127 10.1689 -2.65831
ltibia -14.4285
lfoot -17.5407 13.2842
ltoes 57.9384
1689
root -0.381107 17.546 7.4679 39.0783 -9.26711 -10.2003
lowerback 23.7194 2.30176 5.6864
upperback 12.595 3.89732 5.34358
thorax 0.703081 1.87928 1.66961
lowerneck 5.87997 -5.14482 -6.67637
upperneck 16.1682 -7.93617 8.75008
head 4.47801 -3.83673 3.63368
rclavicle 3.97569e-015 3.1408e-014
rhumerus 54.2862 25.7956 -6.69956
rradius 69.595
rwrist 3.9434
rhand 5.37818 -33.8655
rfingers 7.12502
rthumb 30.7306 -61.318
lclavicle 3.97569e-015 3.1408e-014
lhumerus 58.1 -33.7899 22.3437
lradius 68.3072
lwrist 16.2553
lhand -21.1052 -10.158
lfingers 7.12502
lthumb 5.27274 19.7564
rfemur -45.9055 29.2985 2.57803
rtibia -0.0351773
rfoot -3.94039 -27.6944
rtoes 7.15672
lfemur -23.0903 9.82963 -2.42831
ltibia -14.5396
lfoot -17.8926 13.4536
ltoes 58.0159
1690
root -0.386318 17.5446 7.46458 39.1447 -9.25859 -10.1581
lowerback 23.7473 2.23937 5.72558
upperback 12.5404 3.83283 5.29099
thorax 0.63487 1.85055 1.60186
lowerneck 5.94006 -5.06302 -6.78409
upperneck 16.4185 -7.87336 8.93761
head 4.54934 -3.80352 3.71462
rclavicle -3.33958e-014 -3.3197e-014
rhumerus 54.1962 25.8595 -6.53961
rradius 70.143
rwrist 3.8165
rhand 5.4392 -34.0668
rfingers 7.12502
rthumb 30.7888 -61.5083
lclavicle -3.33958e-014 -3.3197e-014
lhumerus 57.8641 -33.7717 21.9561
lradius 68.8988
lwrist 16.6441
lhand -20.982 -10.3204
lfingers 7.12502
lthumb 5.3917 19.591
rfemur -45.9877 29.2141 2.53085
rtibia -0.035217
rfoot -3.82174 -27.6469
rtoes 6.6612
lfemur -23.1256 9.4821 -2.26032
ltibia -14.6024
lfoot -18.2516 13.6496
ltoes 58.1244
1691
root -0.389806 17.5432 7.46189 39.2081 -9.23965 -10.1184
lowerback 23.7928 2.13415 5.82561
upperback 12.5157 3.72306 5.19432
thorax 0.599012 1.80445 1.46353
lowerneck 5.96779 -4.97931 -6.94533
upperneck 16.8533 -7.82939 9.19412
head 4.68831 -3.77616 3.82527
rclavicle 1.03368e-014 1.90833e-014
rhumerus 54.16 25.8522 -6.46095
rradius 70.6188
rwrist 3.66829
rhand 5.55899 -34.2545
rfingers 7.12502
rthumb 30.903 -61.6744
lclavicle 1.03368e-014 1.90833e-014
lhumerus 57.4948 -33.6729 21.6514
lradius 69.5405
lwrist 17.0423
lhand -21.1481 -10.0751
lfingers 7.12502
lthumb 5.23137 19.8403
rfemur -46.0311 29.116 2.48927
rtibia -0.0996654
rfoot -3.68968 -27.6009
rtoes 6.32758
lfemur -23.176 9.1233 -2.0941
ltibia -14.6416
lfoot -18.6151 13.8801
ltoes 58.1682
1692
root -0.393534 17.5422 7.45965 39.2671 -9.19211 -10.1243
lowerback 23.8121 1.98771 5.9737
upperback 12.5608 3.56143 5.09521
thorax 0.656601 1.73675 1.31125
lowerneck 4.96679 -5.78151 -3.37381
upperneck 17.7221 -8.08684 3.54554
head 4.80621 -3.90046 1.43636
rclavicle 2.38542e-015 1.66979e-014
rhumerus 54.273 25.7464 -6.43568
rradius 70.9857
rwrist 3.53123
rhand 5.61255 -34.3222
rfingers 7.12502
rthumb 30.9541 -61.7324
lclavicle 2.38542e-015 1.66979e-014
lhumerus 56.9696 -33.4322 21.4848
lradius 70.2208
lwrist 17.2253
lhand -21.2609 -9.79542
lfingers 7.12502
lthumb 5.1224 20.1227
rfemur -46.0657 29.0469 2.52338
rtibia -0.132587
rfoot -3.61297 -27.5633
rtoes 6.23783
lfemur -23.1948 8.77723 -1.855
ltibia -14.7054
lfoot -18.9717 14.1061
ltoes 58.187
1693
root -0.398694 17.5401 7.45744 39.3673 -9.17979 -10.1807
lowerback 23.7937 1.87287 6.1041
upperback 12.639 3.42921 5.00271
thorax 0.767169 1.68338 1.17195
lowerneck 4.57738 -6.03226 -2.08932
upperneck 18.5847 -8.1144 1.31585
head 4.99835 -3.92778 0.520041
rclavicle 2.46493e-014 4.25399e-014
rhumerus 54.3966 25.6068 -6.4149
rradius 71.3641
rwrist 3.35055
rhand 5.47514 -34.4373
rfingers 7.12502
rthumb 30.8231 -61.8723
lclavicle 2.46493e-014 4.25399e-014
lhumerus 56.4687 -33.1317 21.3248
lradius 70.8888
lwrist 17.2667
lhand -21.1839 -9.87601
lfingers 7.12502
lthumb 5.1968 20.0403
rfemur -46.1943 29.0404 2.56027
rtibia -0.104526
rfoot -3.58478 -27.5532
rtoes 6.07674
lfemur -23.199 8.51302 -1.56745
ltibia -14.8072
lfoot -19.3404 14.2909
ltoes 58.2595
1694
root -0.402554 17.5367 7.45693 39.4991 -9.16964 -10.2307
lowerback 23.7632 1.76826 6.29621
upperback 12.7116 3.3201 4.88798
thorax 0.883143 1.64561 0.969339
lowerneck 4.62375 -6.21479 -1.34052
upperneck 19.4444 -8.14446 -0.174932
head 5.16637 -3.96027 -0.070993
rclavicle 2.10712e-014 7.36497e-014
rhumerus 54.3727 25.4806 -6.46173
rradius 71.7889
rwrist 3.21162
rhand 5.35322 -34.5908
rfingers 7.12502
rthumb 30.7068 -62.0477
lclavicle 2.10712e-014 7.36497e-014
lhumerus 56.0811 -32.8556 21.1621
lradius 71.4933
lwrist 17.2407
lhand -21.1369 -9.85581
lfingers 7.12502
lthumb 5.24213 20.0593
rfemur -46.3489 29.0208 2.57364
rtibia -0.0913963
rfoot -3.59229 -27.5354
rtoes 6.13129
lfemur -23.2377 8.2513 -1.29693
ltibia -14.9041
lfoot -19.737 14.4607
ltoes 58.3308
1695
root -0.405438 17.5342 7.45631 39.6209 -9.11239 -10.2374
lowerback 23.7261 1.68014 6.49512
upperback 12.8299 3.22858 4.78647
thorax 1.05329 1.61815 0.7753
lowerneck 5.66215 -4.56369 -6.21897
upperneck 20.5851 -7.41076 8.53141
head 5.82146 -3.50024 3.5137
rclavicle -1.15295e-014 -1.39149e-014
rhumerus 54.2431 25.2599 -6.57974
rradius 72.1657
rwrist 3.15758
rhand 5.27351 -34.5907
rfingers 7.12502
rthumb 30.6308 -62.0619
lclavicle -1.15295e-014 -1.39149e-014
lhumerus 55.8215 -32.5269 21.0901
lradius 72.0414
lwrist 17.1192
lhand -21.0203 -9.69891
lfingers 7.12502
lthumb 5.35476 20.2134
rfemur -46.4631 28.9365 2.59121
rtibia -0.103722
rfoot -3.57568 -27.503
rtoes 6.23051
lfemur -23.3397 7.91227 -1.06783
ltibia -14.9458
lfoot -20.1256 14.6535
ltoes 58.3591
